<?xml version="1.0" encoding="utf-8"?>
<!-- Generator: Adobe Illustrator 27.2.0, SVG Export Plug-In . SVG Version: 6.00 Build 0)  -->
<svg version="1.1" id="Layer_1" xmlns="http://www.w3.org/2000/svg" xmlns:xlink="http://www.w3.org/1999/xlink" x="0px" y="0px"
	 viewBox="0 0 797.7 232.6" style="enable-background:new 0 0 797.7 232.6;" xml:space="preserve">
<style type="text/css">
	.st0{stroke:#FFFFFF;stroke-width:3;stroke-miterlimit:10;}
	.st1{fill:#FFFFFF;}
	.st2{fill-rule:evenodd;clip-rule:evenodd;fill:#C8102E;}
</style>
<g>
	<path class="st0" d="M793.7,206.3c0,12.5-10.2,22.7-22.7,22.7c0,0,0,0,0,0H26.8c-12.6,0-22.8-10.2-22.8-22.7V25.3
		c0-12.6,10.2-22.7,22.8-22.7h744.1c12.6,0,22.7,10.2,22.7,22.7c0,0,0,0,0,0L793.7,206.3L793.7,206.3z"/>
	<g>
		<path class="st1" d="M292.9,94.2h-27.7l-6.8,18.5h-12.2l27.2-69.3h11.5l27.8,69.3h-12.8L292.9,94.2z M268.7,84.9h20.7L282,65
			c-1-2.7-2-5.8-3-9.1c-0.9,2.9-1.9,5.9-2.9,9L268.7,84.9z"/>
		<path class="st1" d="M318.2,73.8c0-3.8-0.1-8-0.4-12.6h11.1c0.4,2.2,0.7,4.4,0.9,6.6c4.6-5,9.8-7.5,15.8-7.5
			c7.2-0.1,13.8,4.2,16.7,10.8c1.8,3.8,2.7,8.5,2.7,14.3c0.1,5.3-0.9,10.6-3.1,15.4c-1.8,4-4.8,7.4-8.6,9.7
			c-3.9,2.3-8.3,3.4-12.8,3.3c-3.5,0-7-0.6-10.3-1.8v21.3l-11.8,1L318.2,73.8z M349.2,100.2c2.4-3.2,3.6-8,3.6-14.2
			c0-5.8-0.9-10-3-12.6c-1.8-2.5-4.8-4-8-3.9c-2.2,0-4.4,0.5-6.4,1.6c-2,1.2-3.9,2.6-5.5,4.4v27.6c1.3,0.6,2.7,1.1,4.1,1.4
			c1.5,0.3,3.1,0.5,4.6,0.5C343.3,105.1,346.8,103.4,349.2,100.2L349.2,100.2z"/>
		<path class="st1" d="M372.4,73.8c0-3.8-0.1-8-0.4-12.6h11.1c0.4,2.2,0.7,4.4,0.9,6.6c4.6-5,9.8-7.5,15.8-7.5
			c7.2-0.1,13.8,4.1,16.7,10.8c1.8,3.8,2.7,8.5,2.7,14.3c0.1,5.3-0.9,10.6-3.1,15.4c-1.8,4-4.8,7.4-8.6,9.7
			c-3.9,2.3-8.3,3.4-12.8,3.3c-3.5,0-7-0.6-10.3-1.8v21.3l-11.9,1V73.8z M403.5,100.2c2.4-3.2,3.6-8,3.6-14.2c0-5.8-1-10-3-12.6
			c-1.8-2.5-4.8-4-8-3.9c-2.2,0-4.4,0.5-6.4,1.6c-2.1,1.2-3.9,2.6-5.5,4.4v27.6c1.3,0.6,2.7,1.1,4.1,1.4c1.5,0.3,3.1,0.5,4.6,0.5
			C397.6,105.1,401.1,103.4,403.5,100.2L403.5,100.2z"/>
		<path class="st1" d="M441.4,109.5c-5-2.8-9.1-7-11.8-12.1c-2.7-5.3-4.1-11.5-4.1-18.7c0-7.8,1.6-14.4,4.7-19.8
			c3-5.3,7.5-9.5,12.9-12.2c5.7-2.8,12-4.2,18.3-4.1c3.8,0,7.7,0.4,11.4,1.3c3.5,0.8,6.9,2,10.1,3.6l-3,9.1
			c-5.6-2.8-11.7-4.4-18-4.5c-4.4-0.1-8.8,1-12.6,3.1c-3.7,2.1-6.6,5.3-8.5,9.1c-2.1,4.5-3.1,9.5-3,14.4c-0.1,4.5,0.7,9,2.3,13.2
			c1.4,3.7,4,6.9,7.3,9.1c3.3,2.2,7.5,3.4,12.6,3.3c2.3,0,4.6-0.2,6.9-0.6c2.2-0.4,4.4-0.9,6.4-1.7V88h-16v-9.2h27.5V108
			c-4,1.9-8.2,3.3-12.5,4.3c-4.3,1-8.6,1.5-13,1.5C452.6,113.7,446.5,112.3,441.4,109.5z"/>
		<path class="st1" d="M527.5,112.8c-0.4-2.3-0.7-4.5-0.8-6.8c-2,2.3-4.4,4.2-7.1,5.5c-3.1,1.5-6.4,2.3-9.9,2.3
			c-2.8,0-5.6-0.6-8.1-1.7c-2.4-1.1-4.4-3-5.8-5.3c-1.5-2.6-2.3-5.6-2.2-8.6c-0.2-4.6,1.8-9.1,5.4-12c3.6-3,9.6-4.5,18-4.5
			c3.1,0,6.3,0.2,9.4,0.7v-1c0-4.6-1-7.8-2.9-9.6c-1.9-1.9-4.7-2.8-8.4-2.8c-2.7,0-5.5,0.4-8.1,1.1c-2.6,0.6-5.1,1.5-7.5,2.6
			l-1.9-8.6c2.7-1.1,5.5-2,8.3-2.6c3.6-0.8,7.2-1.2,10.9-1.2c3.9-0.1,7.8,0.6,11.4,2c3.2,1.4,5.8,3.9,7.3,7
			c1.8,3.3,2.6,7.7,2.6,13.3v20.5c0,2.1,0.1,5.4,0.4,9.7L527.5,112.8z M520.4,103.2c2.3-1,4.3-2.5,6-4.4v-9.6
			c-2.6-0.3-5.2-0.5-7.9-0.5c-4.9,0-8.2,0.8-10.1,2.4c-1.9,1.6-2.9,3.9-2.8,6.4c0,2.5,0.7,4.4,2,5.6c1.5,1.3,3.5,2,5.5,1.9
			C515.7,105,518.2,104.4,520.4,103.2L520.4,103.2z"/>
		<path class="st1" d="M548.5,100.4v-61l11.8-0.9v59.8c0,2.2,0.4,3.8,1.1,4.7c0.9,1,2.2,1.5,3.6,1.4c1.1,0,2.1-0.2,3.1-0.5l1.4,8.5
			c-1.3,0.5-2.7,0.9-4.1,1.1c-1.5,0.3-3,0.4-4.6,0.4C552.6,113.8,548.5,109.3,548.5,100.4z"/>
		<path class="st1" d="M578,100.4v-61l11.8-0.9v59.8c0,2.2,0.4,3.8,1.1,4.7c0.9,1,2.2,1.5,3.6,1.4c1.1,0,2.1-0.2,3.1-0.5l1.4,8.5
			c-1.3,0.5-2.7,0.9-4.1,1.1c-1.5,0.3-3,0.4-4.6,0.4C582.1,113.8,578,109.3,578,100.4z"/>
		<path class="st1" d="M647.9,88.5h-33.8c0.5,10.8,5.7,16.2,15.4,16.2c2.5,0,5-0.3,7.4-0.9c2.5-0.6,4.9-1.4,7.3-2.4l2.6,8.1
			c-6.1,2.9-12.7,4.3-19.5,4.2c-5.5,0-10.1-1-13.9-3.1c-3.7-2-6.6-5.1-8.5-8.9c-2-4.4-3-9.2-2.8-14.1c-0.1-5.1,0.9-10.1,3-14.7
			c1.8-3.9,4.7-7.2,8.4-9.4c3.7-2.2,8-3.3,12.4-3.2c4.9,0,8.9,1.1,12.2,3.4c3.3,2.3,5.8,5.4,7.3,9.1c1.6,4,2.4,8.3,2.4,12.6
			L647.9,88.5z M636.3,81c-0.2-4.1-1.3-7.2-3.1-9.2c-1.9-2.1-4.6-3.2-7.4-3.1c-2.8-0.1-5.6,1-7.5,3.1c-2,2.1-3.3,5.2-3.9,9.2H636.3z
			"/>
		<path class="st1" d="M657.4,74.2c0-2.8-0.1-7.2-0.4-13h11c0.2,1.4,0.4,3.1,0.6,5.1c0.2,2,0.3,3.6,0.4,4.8c1.2-2,2.5-3.9,4-5.7
			c1.3-1.5,2.9-2.8,4.6-3.8c1.9-1,3.9-1.5,6-1.5c1.6,0,3.2,0.2,4.7,0.6l-1.5,10.2c-1.2-0.4-2.5-0.5-3.8-0.5
			c-2.6-0.1-5.1,0.7-7.3,2.1c-2.6,2-4.8,4.3-6.6,7v33.1h-11.8V74.2z"/>
		<path class="st1" d="M695.4,133.9c-1.4-0.2-2.9-0.6-4.3-1l2.2-8.6c1,0.3,2,0.5,3,0.6c1.1,0.2,2.3,0.3,3.4,0.3
			c5.2,0,9.2-3.4,11.8-10.1l0.8-1.9l-19-52.1H706l9.6,29.1c1.2,3.7,2.2,7.6,3,11.4c0.9-3.8,1.9-7.5,3.2-11.2l9.7-29.3h11.9l-19,52.3
			c-1.4,4.2-3.4,8.2-5.8,12c-1.8,2.8-4.4,5.1-7.3,6.7c-3.2,1.5-6.7,2.3-10.2,2.2C699.1,134.4,697.3,134.2,695.4,133.9z"/>
	</g>
	<g>
		<g id="形状_1_拷贝_25">
			<path class="st2" d="M160.8,39.1H94.1c-31.3,0-42.9,11.5-42.9,42.9v66.7c0,31.4,11.5,42.9,42.9,42.9h66.7
				c31.4,0,42.9-11.5,42.9-42.9V82C203.7,50.6,192.2,39.1,160.8,39.1z"/>
		</g>
		<path class="st1" d="M81.4,115.4h4v19.9h-4v-8.1h-9.1v8.1h-4.1v-19.9h4.1v8h9.1V115.4z M104.2,126.8c0,3.2-1.6,5-4.5,5
			s-4.6-1.8-4.6-5.1v-11.3H91v11.4c0,5.6,3.1,8.8,8.6,8.8c5.4,0,8.6-3.3,8.6-9v-11.3h-4L104.2,126.8z M150.9,129.1l-4.5-13.7h-3.3
			l-4.5,13.7l-4.4-13.7h-4.3l6.9,19.9h3.4l4.5-13.1l4.5,13.1h3.4l6.9-19.9h-4.2L150.9,129.1z M166.8,126.7h7.4v-3.6h-7.4V119h10.7
			v-3.6h-14.7v19.9h15v-3.6h-11.1V126.7z M182.7,135.3h4v-19.9h-4V135.3z M116.2,131.2l-1.8,4.1h-4.1l8.8-19.9h3.6l8.7,19.9h-4.2
			l-1.8-4.1L116.2,131.2z M117.7,127.6h6.1l-3-7.2L117.7,127.6z"/>
		<path class="st1" d="M127.4,90c-14,0-25.4-11.4-25.4-25.4h3.6c0.3,12,10.2,21.6,22.2,21.3c11.7-0.2,21.1-9.7,21.3-21.3h3.6
			C152.8,78.6,141.5,90,127.4,90C127.5,90,127.4,90,127.4,90z"/>
	</g>
	<g>
		<path class="st1" d="M246.5,158.7c-0.7-0.7-1.1-1.6-1-2.6c0-1,0.3-1.9,1-2.6c1.5-1.3,3.8-1.3,5.2,0c0.7,0.7,1.1,1.6,1.1,2.6
			c0,0.7-0.2,1.3-0.5,1.9c-0.3,0.5-0.8,1-1.3,1.3c-0.6,0.3-1.2,0.5-1.9,0.5C248.2,159.8,247.2,159.4,246.5,158.7z M246.1,163.6h6.1
			v27h-6.1V163.6z"/>
		<path class="st1" d="M259.8,184.1v-31.9l6.1-0.5V183c-0.1,0.9,0.1,1.7,0.6,2.4c0.5,0.5,1.2,0.8,1.9,0.7c0.6,0,1.1-0.1,1.6-0.3
			l0.7,4.4c-0.7,0.3-1.4,0.4-2.1,0.6c-0.8,0.1-1.6,0.2-2.4,0.2C261.9,191.1,259.8,188.8,259.8,184.1z"/>
		<path class="st1" d="M297.1,177.9h-17.6c0.3,5.6,3,8.5,8.1,8.5c1.3,0,2.6-0.2,3.9-0.5c1.3-0.3,2.6-0.7,3.8-1.2l1.4,4.2
			c-3.2,1.5-6.7,2.3-10.2,2.2c-2.5,0.1-5-0.5-7.2-1.6c-1.9-1.1-3.5-2.7-4.4-4.7c-1-2.3-1.6-4.8-1.5-7.3c-0.1-2.7,0.5-5.3,1.6-7.7
			c0.9-2,2.5-3.7,4.4-4.9c2-1.2,4.2-1.7,6.5-1.7c2.3-0.1,4.5,0.5,6.4,1.8c1.7,1.2,3,2.8,3.8,4.8c0.8,2.1,1.3,4.3,1.2,6.6
			L297.1,177.9z M291.1,174c0-1.7-0.5-3.5-1.6-4.8c-1-1.1-2.4-1.7-3.9-1.6c-1.5,0-2.9,0.5-3.9,1.6c-1.2,1.4-1.9,3-2,4.8H291.1z"/>
		<path class="st1" d="M319.4,154.4h6.2v18.2c1.2-1.4,2.3-2.9,3.3-4.3l10.5-13.9h7l-12.5,16l13.6,20.2h-7.1l-10.5-16l-4.3,4.6v11.4
			h-6.2V154.4z"/>
		<path class="st1" d="M351.9,154.4h21.3l-0.6,5.1h-14.5v10h13.6v4.8h-13.6v11h15.2l-0.5,5.2h-21L351.9,154.4z"/>
		<path class="st1" d="M398.6,187.7c-2.1,2-4.9,3.1-7.7,3.3l-0.5,1.3c1.4,0.3,2.6,0.8,3.8,1.7c0.9,0.8,1.4,1.9,1.3,3.1
			c0.1,1.4-0.6,2.8-1.7,3.6c-1.5,1-3.3,1.4-5,1.3c-2,0-4-0.5-5.8-1.4l1.1-2.9c0.7,0.4,1.5,0.7,2.3,0.9c0.7,0.2,1.4,0.3,2.1,0.3
			c0.7,0,1.4-0.1,2.1-0.5c0.5-0.3,0.8-0.8,0.8-1.3c0-0.8-0.5-1.5-1.3-1.7c-1.4-0.5-2.8-0.8-4.2-0.9l1.3-3.4
			c-1.7-0.1-3.3-0.4-4.9-0.8c-1.5-0.4-3-0.9-4.4-1.6l1.9-4.9c1.5,0.7,3,1.3,4.6,1.7c1.5,0.4,3.1,0.7,4.7,0.7
			c1.7,0.1,3.3-0.4,4.6-1.4c1.1-0.9,1.6-2.2,1.6-3.6c0-1-0.3-2-0.9-2.8c-0.7-0.8-1.5-1.5-2.5-2c-1-0.5-2.4-1.2-4.3-2
			c-1.7-0.7-3.3-1.6-4.8-2.6c-1.3-0.8-2.3-1.9-3.1-3.2c-0.8-1.4-1.2-2.9-1.2-4.5c-0.1-3.8,2.2-7.3,5.7-8.8c2-0.8,4.1-1.2,6.3-1.2
			c1.8,0,3.6,0.2,5.4,0.6c1.5,0.3,3,0.8,4.4,1.5l-1.2,5c-2.6-1.4-5.6-2.1-8.5-2.2c-1.5-0.1-3,0.3-4.3,1c-1.1,0.7-1.7,1.9-1.6,3.2
			c0,0.9,0.3,1.8,0.8,2.5c0.7,0.8,1.5,1.4,2.4,1.9c1,0.6,2.6,1.3,4.7,2.3c1.7,0.7,3.3,1.6,4.9,2.7c1.2,0.8,2.2,1.9,3,3.2
			c0.7,1.4,1.1,3,1.1,4.6C401.5,183,400.5,185.7,398.6,187.7z"/>
		<path class="st1" d="M408,154.4h21.3l-0.5,5.1h-14.5v10.1h13.6v4.9h-13.6v16.1H408V154.4z"/>
		<path class="st1" d="M435.3,154.4h21.3l-0.6,5.1h-14.5v10h13.6v4.8h-13.6v11h15.2l-0.5,5.2h-21V154.4z"/>
		<path class="st1" d="M463.6,154.4h11.9c3.5-0.1,6.9,0.6,10.1,1.9c2.7,1.2,4.9,3.2,6.4,5.7c1.5,2.8,2.3,6,2.2,9.3
			c0.1,3.5-0.7,6.9-2.3,10c-1.5,2.9-3.8,5.3-6.6,6.8c-3.1,1.7-6.7,2.6-10.2,2.5h-11.4V154.4z M474.6,185.7c2.5,0.1,5-0.5,7.2-1.8
			c1.9-1.2,3.5-2.9,4.4-5c1-2.3,1.5-4.8,1.5-7.3c0-4-1.1-7.1-3.2-9.1c-2.1-2-5.3-3.1-9.5-3.1h-5.1v26.3L474.6,185.7z"/>
		<path class="st1" d="M501.4,150.3c-0.7-0.7-1.1-1.6-1-2.6c0-1,0.3-1.9,1-2.6c0.7-0.7,1.6-1,2.6-1c1,0,1.9,0.3,2.6,1
			c0.7,0.7,1.1,1.6,1,2.6c0,0.7-0.2,1.3-0.5,1.9c-0.3,0.6-0.8,1-1.3,1.3c-0.6,0.3-1.2,0.5-1.9,0.5
			C503.1,151.4,502.1,151,501.4,150.3z M500.9,154.4h6.2v36.2h-6.2V154.4z"/>
		<path class="st1" d="M516.3,154.4h7.2l17.9,28c-0.2-2.7-0.2-5.1-0.2-7.4v-20.7h5.8v36.2h-6.9l-18.2-28.5c0.2,3.2,0.3,6.1,0.3,8.6
			v19.9h-5.8L516.3,154.4z"/>
	</g>
</g>
</svg>
