<?xml version="1.0" encoding="utf-8"?>
<!-- Generator: Adobe Illustrator 27.2.0, SVG Export Plug-In . SVG Version: 6.00 Build 0)  -->
<svg version="1.1" id="Layer_1" xmlns="http://www.w3.org/2000/svg" xmlns:xlink="http://www.w3.org/1999/xlink" x="0px" y="0px"
	 viewBox="0 0 797.7 232.6" style="enable-background:new 0 0 797.7 232.6;" xml:space="preserve">
<style type="text/css">
	.st0{stroke:#FFFFFF;stroke-width:3;stroke-miterlimit:10;}
	.st1{fill:#FFFFFF;}
</style>
<g>
	<path class="st0" d="M793.7,206.3c0,12.5-10.2,22.7-22.7,22.7c0,0,0,0,0,0H26.8c-12.6,0-22.8-10.2-22.8-22.7V25.3
		c0-12.6,10.2-22.7,22.8-22.7h744.1c12.6,0,22.7,10.2,22.7,22.7c0,0,0,0,0,0L793.7,206.3L793.7,206.3z"/>
	<path class="st1" d="M168.7,114.5c-0.2-19.1,15.7-28.4,16.4-28.8c-9-13.1-22.9-14.8-27.7-15c-11.7-1.2-23,7-28.9,7
		c-6.1,0-15.2-6.9-25.1-6.7C90.7,71.2,78.8,78.6,72.3,90c-13.4,23.3-3.4,57.4,9.5,76.2c6.4,9.2,14,19.5,23.8,19.1
		c9.6-0.4,13.2-6.1,24.9-6.1c11.5,0,14.9,6.1,25,5.9c10.3-0.2,16.9-9.2,23.1-18.5c7.4-10.5,10.4-20.9,10.6-21.5
		C188.8,145,168.9,137.4,168.7,114.5L168.7,114.5z M149.7,58.3c5.2-6.5,8.7-15.3,7.7-24.2c-7.5,0.3-16.9,5.2-22.3,11.5
		c-4.8,5.6-9.1,14.7-7.9,23.3C135.7,69.6,144.3,64.7,149.7,58.3z"/>
	<g>
		<path class="st1" d="M313,114.2h-13.5L292.2,91h-25.6l-7,23.2h-13.1l25.4-78.9h15.7L313,114.2L313,114.2z M290,81.3l-6.7-20.6
			c-0.7-2.1-2-7.1-4-14.9h-0.2c-0.8,3.4-2,8.3-3.7,14.9l-6.6,20.6H290z M378.3,85c0,9.7-2.6,17.3-7.9,22.9c-4.7,5-10.6,7.5-17.5,7.5
			c-7.5,0-13-2.7-16.3-8.1v29.9h-12.6V76c0-6.1-0.2-12.3-0.5-18.7h11.1l0.7,9h0.2c4.2-6.8,10.6-10.2,19.2-10.2
			c6.7,0,12.3,2.7,16.8,8C376,69.4,378.3,76.4,378.3,85L378.3,85z M365.4,85.5c0-5.5-1.2-10.1-3.7-13.7c-2.7-3.7-6.4-5.6-11-5.6
			c-3.1,0-6,1-8.5,3.1c-2.5,2.1-4.2,4.8-5,8.1c-0.3,1.3-0.5,2.5-0.6,3.8v9.5c0,4.1,1.3,7.6,3.8,10.5c2.5,2.8,5.8,4.3,9.9,4.3
			c4.8,0,8.5-1.8,11.1-5.5C364,96.3,365.4,91.5,365.4,85.5z M443.7,85c0,9.7-2.6,17.3-7.9,22.9c-4.7,5-10.6,7.5-17.5,7.5
			c-7.5,0-13-2.7-16.3-8.1v29.9h-12.6V76c0-6.1-0.2-12.3-0.5-18.7H400l0.7,9h0.2c4.2-6.8,10.6-10.2,19.2-10.2c6.7,0,12.3,2.7,16.8,8
			C441.5,69.4,443.7,76.4,443.7,85L443.7,85z M430.8,85.5c0-5.5-1.3-10.1-3.8-13.7c-2.7-3.7-6.4-5.6-11-5.6c-3.1,0-6,1-8.5,3.1
			c-2.5,2.1-4.2,4.8-5,8.1c-0.4,1.6-0.6,2.8-0.6,3.8v9.5c0,4.1,1.3,7.6,3.8,10.5c2.5,2.8,5.8,4.3,9.9,4.3c4.8,0,8.5-1.8,11.1-5.5
			C429.5,96.3,430.8,91.5,430.8,85.5z M516.9,92c0,6.7-2.3,12.2-7,16.4c-5.1,4.6-12.3,6.9-21.5,6.9c-8.5,0-15.3-1.6-20.4-4.9
			l2.9-10.5c5.5,3.3,11.6,4.9,18.3,4.9c4.8,0,8.5-1.1,11.1-3.2c2.7-2.1,4-5,4-8.6c0-3.2-1.1-5.9-3.3-8.1c-2.2-2.2-5.8-4.2-10.9-6.1
			c-13.8-5.2-20.7-12.7-20.7-22.6c0-6.5,2.4-11.8,7.3-15.9c4.9-4.1,11.3-6.2,19.4-6.2c7.2,0,13.2,1.3,17.9,3.7l-3.2,10.3
			c-4.5-2.4-9.5-3.6-15.2-3.6c-4.5,0-8,1.1-10.5,3.3c-2.1,2-3.2,4.3-3.2,7.2c0,3.1,1.2,5.7,3.6,7.7c2.1,1.9,5.9,3.9,11.5,6.1
			c6.8,2.7,11.8,5.9,15,9.6C515.3,82,516.9,86.6,516.9,92L516.9,92z M558.8,66.8h-13.9v27.6c0,7,2.5,10.5,7.4,10.5
			c2.3,0,4.1-0.2,5.6-0.6l0.3,9.6c-2.5,0.9-5.8,1.4-9.8,1.4c-5,0-8.9-1.5-11.7-4.6c-2.8-3-4.2-8.2-4.2-15.3V66.7h-8.3v-9.5h8.3V46.8
			l12.4-3.7v14.2h13.9L558.8,66.8L558.8,66.8z M621.6,85.3c0,8.7-2.5,15.9-7.5,21.5c-5.2,5.8-12.2,8.7-20.8,8.7
			c-8.4,0-15-2.8-20-8.3c-5-5.5-7.4-12.5-7.4-21c0-8.8,2.6-16,7.7-21.7c5.1-5.6,12-8.4,20.7-8.4c8.4,0,15.1,2.8,20.1,8.3
			C619.2,69.8,621.6,76.7,621.6,85.3L621.6,85.3z M608.5,85.5c0-5.2-1.1-9.7-3.4-13.4c-2.7-4.5-6.4-6.8-11.4-6.8
			c-5.1,0-8.9,2.3-11.6,6.8c-2.3,3.7-3.4,8.3-3.4,13.7c0,5.2,1.1,9.7,3.4,13.4c2.7,4.5,6.5,6.8,11.5,6.8c4.8,0,8.6-2.3,11.4-6.9
			C607.3,95.3,608.5,90.8,608.5,85.5L608.5,85.5z M662.7,68.4c-1.3-0.2-2.6-0.4-4-0.3c-4.4,0-7.9,1.7-10.3,5
			c-2.1,3-3.2,6.7-3.2,11.2v29.9h-12.6v-39c0-6-0.1-11.9-0.4-17.9h11l0.5,10.9h0.3c1.3-3.7,3.4-6.8,6.3-9c2.6-2,5.8-3,9.1-3
			c1.2,0,2.2,0.1,3.2,0.2L662.7,68.4L662.7,68.4z M719.2,83c0,1.9-0.1,3.8-0.5,5.7h-37.9c0.1,5.6,2,9.9,5.5,12.9
			c3.2,2.6,7.3,4,12.4,4c5.6,0,10.7-0.9,15.3-2.7l2,8.8c-5.4,2.3-11.7,3.5-19.1,3.5c-8.8,0-15.8-2.6-20.8-7.8
			c-5-5.2-7.5-12.2-7.5-20.9c0-8.6,2.3-15.7,7-21.4c4.9-6.1,11.5-9.1,19.9-9.1c8.2,0,14.4,3,18.6,9.1C717.6,70,719.2,75.9,719.2,83
			L719.2,83z M707.2,79.8c0.1-3.8-0.7-7-2.5-9.7c-2.2-3.5-5.6-5.3-10.1-5.3c-4.1,0-7.5,1.7-10.1,5.2c-2.1,2.7-3.4,6-3.7,9.8
			L707.2,79.8L707.2,79.8z"/>
	</g>
	<g>
		<path class="st1" d="M244.4,149.3c0-0.9,0.3-1.6,0.9-2.2c0.6-0.6,1.4-0.9,2.5-0.9s1.9,0.3,2.5,0.9c0.6,0.6,0.9,1.4,0.9,2.2
			c0,0.9-0.3,1.6-0.9,2.2c-0.6,0.6-1.4,0.9-2.5,0.9s-1.9-0.3-2.5-0.9C244.7,150.9,244.4,150.1,244.4,149.3z M250.9,192.3h-6.4v-37
			h6.4V192.3z"/>
		<path class="st1" d="M288.2,192.3h-6.4l-16.5-26.2v26.2h-6.4v-37h6.4l16.5,26.4v-26.4h6.4V192.3z"/>
		<path class="st1" d="M295.8,192.3v-37h10.9c3.3,0,6.2,0.7,8.7,2.2s4.5,3.5,5.9,6.2c1.4,2.7,2.1,5.7,2.1,9.2v1.9
			c0,3.5-0.7,6.6-2.1,9.2c-1.4,2.7-3.4,4.7-6,6.1c-2.6,1.4-5.5,2.2-8.9,2.2H295.8z M302.2,160.5v26.7h4.2c3.4,0,6-1.1,7.8-3.2
			c1.8-2.1,2.7-5.1,2.8-9.1v-2.1c0-4-0.9-7.1-2.6-9.2c-1.7-2.1-4.3-3.2-7.6-3.2H302.2z"/>
		<path class="st1" d="M330,149.3c0-0.9,0.3-1.6,0.9-2.2c0.6-0.6,1.4-0.9,2.5-0.9s1.9,0.3,2.5,0.9c0.6,0.6,0.9,1.4,0.9,2.2
			c0,0.9-0.3,1.6-0.9,2.2c-0.6,0.6-1.4,0.9-2.5,0.9s-1.9-0.3-2.5-0.9C330.3,150.9,330,150.1,330,149.3z M336.6,192.3h-6.4v-37h6.4
			V192.3z"/>
		<path class="st1" d="M358.1,178.1h-7.2v14.2h-6.4v-37h13c4.3,0,7.6,1,9.9,2.9c2.3,1.9,3.5,4.7,3.5,8.3c0,2.5-0.6,4.5-1.8,6.2
			s-2.9,3-5,3.9l8.3,15.4v0.3h-6.9L358.1,178.1z M350.9,172.9h6.6c2.2,0,3.9-0.5,5.1-1.6c1.2-1.1,1.8-2.6,1.8-4.5
			c0-2-0.6-3.5-1.7-4.6c-1.1-1.1-2.8-1.6-5-1.7h-6.8V172.9z"/>
		<path class="st1" d="M377.2,149.3c0-0.9,0.3-1.6,0.9-2.2c0.6-0.6,1.4-0.9,2.5-0.9s1.9,0.3,2.5,0.9c0.6,0.6,0.9,1.4,0.9,2.2
			c0,0.9-0.3,1.6-0.9,2.2c-0.6,0.6-1.4,0.9-2.5,0.9s-1.9-0.3-2.5-0.9C377.5,150.9,377.2,150.1,377.2,149.3z M383.7,192.3h-6.4v-37
			h6.4V192.3z"/>
		<path class="st1" d="M421,192.3h-6.4l-16.5-26.2v26.2h-6.4v-37h6.4l16.5,26.4v-26.4h6.4V192.3z"/>
	</g>
</g>
</svg>
