<?xml version="1.0" encoding="utf-8"?>
<!-- Generator: Adobe Illustrator 27.2.0, SVG Export Plug-In . SVG Version: 6.00 Build 0)  -->
<svg version="1.1" id="Layer_1" xmlns="http://www.w3.org/2000/svg" xmlns:xlink="http://www.w3.org/1999/xlink" x="0px" y="0px"
	 viewBox="0 0 100 100" style="enable-background:new 0 0 100 100;" xml:space="preserve">
<style type="text/css">
	.st0{fill:#FFFFFF;}
	.st1{fill:#231F20;}
</style>
<circle class="st0" cx="50" cy="50" r="50"/>
<g>
	<path class="st1" d="M35.8,37.4h6.2v-3.2c0-3.5,0.4-6.2,1.1-7.9c0.8-1.7,2.1-3.2,4.2-4.3c2-1.1,4.6-1.6,7.7-1.6
		c3.2,0,6.3,0.5,9.3,1.4l-1.5,7.8C61,29.2,59.3,29,57.6,29c-1.6,0-2.8,0.4-3.5,1.1c-0.7,0.8-1.1,2.2-1.1,4.3v3h8.3v8.8h-8.3v33.4
		H41.9V46.2h-6.2V37.4z"/>
</g>
</svg>
