<svg width="32" height="34" viewBox="0 0 32 34" fill="none" xmlns="http://www.w3.org/2000/svg">
<path d="M24.3181 15.1529L24.3188 15.1554C24.5338 15.903 24.3516 16.7102 23.8374 17.2931L23.8366 17.294L11.0345 31.7782C11.0344 31.7783 11.0343 31.7785 11.0342 31.7786L11.0337 31.7791L10.1487 30.9969C10.0037 31.1612 9.76595 31.1975 9.58233 31.0848L24.3181 15.1529ZM24.3181 15.1529C24.1014 14.4056 23.5142 13.8136 22.7501 13.6081L19.5877 12.7578M24.3181 15.1529L19.5877 12.7578M19.5877 12.7578L23.4354 6.70446L23.4359 6.70375C23.8173 6.10273 23.8989 5.35224 23.6459 4.68041L19.5877 12.7578ZM7.9496 14.0699C7.5681 14.671 7.48653 15.4213 7.73959 16.0933L23.6456 4.67974C23.393 4.00906 22.8339 3.49316 22.1345 3.30509L17.4477 2.04496C16.4934 1.78837 15.4971 2.19289 14.9753 3.01558C14.9752 3.0158 14.9751 3.01602 14.9749 3.01624L7.94999 14.0693L7.9496 14.0699Z" fill="url(#paint0_linear_1800_36682)" stroke="url(#paint1_linear_1800_36682)" stroke-width="2.36249"/>
<path fill-rule="evenodd" clip-rule="evenodd" d="M23.1836 15.4819C23.0793 15.1222 22.7996 14.8446 22.4434 14.7488L17.7283 13.4811L22.4385 6.07079C22.623 5.78001 22.6614 5.41767 22.5403 5.09642C22.4198 4.77612 22.1544 4.53366 21.8277 4.44582L17.141 3.18569C16.6959 3.06602 16.2233 3.25304 15.9727 3.64854L8.94692 14.7029C8.76239 14.9937 8.72398 15.3558 8.84515 15.6773C8.96567 15.9976 9.23101 16.24 9.55768 16.3278L14.167 17.5672L9.39503 30.5356C9.31906 30.7417 9.39771 30.9719 9.58233 31.0848C9.76595 31.1975 10.0037 31.1612 10.1487 30.9969L22.9515 16.5118C23.1992 16.231 23.287 15.8414 23.1836 15.4819Z" fill="#FFC000" stroke="url(#paint2_linear_1800_36682)" stroke-width="1.37812" stroke-linejoin="round"/>
<defs>
<linearGradient id="paint0_linear_1800_36682" x1="16.0008" y1="3.1499" x2="16.0008" y2="31.1499" gradientUnits="userSpaceOnUse">
<stop stop-color="white"/>
<stop offset="0.0001" stop-color="white"/>
<stop offset="1" stop-color="#FFC000"/>
</linearGradient>
<linearGradient id="paint1_linear_1800_36682" x1="16.0008" y1="3.1499" x2="16.0008" y2="31.1499" gradientUnits="userSpaceOnUse">
<stop stop-opacity="0"/>
<stop offset="1" stop-opacity="0.15"/>
</linearGradient>
<linearGradient id="paint2_linear_1800_36682" x1="16.0008" y1="3.1499" x2="16.0008" y2="31.1499" gradientUnits="userSpaceOnUse">
<stop stop-color="white"/>
<stop offset="0.0001" stop-color="white"/>
<stop offset="1" stop-color="#FFC000"/>
</linearGradient>
</defs>
</svg>
