<?xml version="1.0" encoding="utf-8"?>
<!-- Generator: Adobe Illustrator 27.2.0, SVG Export Plug-In . SVG Version: 6.00 Build 0)  -->
<svg version="1.1" id="Layer_1" xmlns="http://www.w3.org/2000/svg" xmlns:xlink="http://www.w3.org/1999/xlink" x="0px" y="0px"
	 viewBox="0 0 100 100" style="enable-background:new 0 0 100 100;" xml:space="preserve">
<style type="text/css">
	.st0{fill:#FFFFFF;}
	.st1{fill:#231F20;}
</style>
<circle class="st0" cx="50" cy="50" r="50"/>
<g>
	<path class="st1" d="M50,72.7c-2.2,0-4.4,0-6.6,0c-2.1,0-4.3,0-6.4-0.5c-5.1-1.2-8.2-4.4-9.3-9.5c-0.4-1.7-0.5-3.4-0.5-5.2
		c0-5,0-10.1,0-15.1c0-2.1,0.1-4.2,0.7-6.2c1.4-4.7,4.5-7.5,9.3-8.5c1.7-0.4,3.4-0.5,5.2-0.5c5,0,10.1,0,15.1,0c2,0,4,0.1,6,0.7
		c4.8,1.4,7.7,4.5,8.8,9.4c0.5,2,0.5,4.1,0.5,6.2c0,4.3,0,8.7,0,13c0,2.1,0,4.3-0.5,6.4c-1.2,5.1-4.4,8.2-9.6,9.4
		c-2,0.4-4,0.5-6,0.5C54.4,72.8,52.2,72.7,50,72.7z M50,31.2C50,31.2,50,31.3,50,31.2c-1.8,0.1-3.7,0-5.5,0.1c-2.1,0-4.2,0-6.3,0.4
		c-3.3,0.7-5.5,2.6-6.4,5.8c-0.4,1.5-0.5,2.9-0.5,4.4c0,4.7-0.1,9.4-0.1,14c0,1.9,0,3.9,0.4,5.7c0.7,3.3,2.6,5.5,5.9,6.4
		c1.4,0.4,2.8,0.5,4.3,0.5c5.4,0,10.9,0,16.3,0c1.2,0,2.4-0.1,3.6-0.3c3.3-0.6,5.5-2.6,6.4-5.9c0.4-1.5,0.5-3,0.5-4.4
		c0-5.3,0-10.6,0-16c0-1.4-0.1-2.7-0.4-4.1c-0.5-2.3-1.7-4.1-3.8-5.3c-1.5-0.8-3.2-1.2-4.9-1.2C56.4,31.3,53.2,31.3,50,31.2z"/>
	<g>
		<path class="st1" d="M50,42.4c-4.2,0-7.6,3.4-7.6,7.6s3.4,7.6,7.6,7.6s7.6-3.4,7.6-7.6S54.2,42.4,50,42.4z"/>
		<path class="st1" d="M60.1,30.7H38.8c-5,0-9.1,3.9-9.1,8.7v22.2c0,4.8,4.1,8.7,9.1,8.7h21.4c5,0,9.1-3.9,9.1-8.7V39.4
			C69.3,34.6,65.1,30.7,60.1,30.7z M49.9,61.7c-6.5,0-11.6-5.3-11.6-11.8c0-6.4,5.3-11.6,11.7-11.6c6.5,0,11.7,5.3,11.7,11.8
			C61.7,56.5,56.4,61.7,49.9,61.7z M62.2,40.6c-1.5,0-2.7-1.2-2.8-2.7c0-1.5,1.2-2.8,2.7-2.8s2.8,1.2,2.8,2.7S63.7,40.5,62.2,40.6z"
			/>
	</g>
</g>
</svg>
