<?xml version="1.0" encoding="utf-8"?>
<!-- Generator: Adobe Illustrator 27.2.0, SVG Export Plug-In . SVG Version: 6.00 Build 0)  -->
<svg version="1.1" id="Layer_1" xmlns="http://www.w3.org/2000/svg" xmlns:xlink="http://www.w3.org/1999/xlink" x="0px" y="0px"
	 viewBox="0 0 797.7 232.6" style="enable-background:new 0 0 797.7 232.6;" xml:space="preserve">
<style type="text/css">
	.st0{stroke:#FFFFFF;stroke-width:3;stroke-miterlimit:10;}
	.st1{fill:#FFFFFF;}
	.st2{fill:#E33628;}
	.st3{fill:#F8BD00;}
	.st4{fill:#587DBD;}
	.st5{fill:#2E9F43;}
	.st6{fill:none;}
</style>
<g>
	<path class="st0" d="M793.7,206.3c0,12.5-10.2,22.7-22.7,22.7c0,0,0,0,0,0H26.8c-12.6,0-22.8-10.2-22.8-22.7V25.3
		c0-12.6,10.2-22.7,22.8-22.7h744.1c12.6,0,22.7,10.2,22.7,22.7c0,0,0,0,0,0L793.7,206.3L793.7,206.3z"/>
	<path class="st1" d="M402.8,68.4c-13.7,0-25,10.5-25,24.9c0,14.3,11.2,24.9,25,24.9s25-10.6,25-24.9
		C427.7,78.9,416.5,68.4,402.8,68.4 M402.8,108.4c-7.5,0-14-6.2-14-15.1c0-9,6.5-15.1,14-15.1s14,6.1,14,15.1
		C416.8,102.2,410.3,108.4,402.8,108.4 M348.3,68.4c-13.7,0-25,10.5-25,24.9c0,14.3,11.2,24.9,25,24.9s25-10.6,25-24.9
		C373.3,78.9,362.1,68.4,348.3,68.4 M348.3,108.4c-7.5,0-14-6.2-14-15.1c0-9,6.5-15.1,14-15.1c7.5,0,14,6.1,14,15.1
		C362.4,102.2,355.9,108.4,348.3,108.4 M283.6,76.1v10.5h25.2c-0.8,5.9-2.7,10.3-5.7,13.3c-3.7,3.7-9.4,7.7-19.5,7.7
		c-15.5,0-27.7-12.5-27.7-28.1c0-15.5,12.1-28.1,27.7-28.1c8.4,0,14.5,3.3,19,7.5l7.4-7.4c-6.3-6-14.7-10.6-26.5-10.6
		c-21.3,0-39.2,17.3-39.2,38.6c0,21.3,17.9,38.6,39.2,38.6c11.5,0,20.2-3.8,26.9-10.8c7-7,9.1-16.8,9.1-24.7c0-2.4-0.2-4.7-0.6-6.6
		H283.6z M548.4,84.3c-2.1-5.6-8.4-15.8-21.3-15.8c-12.8,0-23.4,10.1-23.4,24.9c0,13.9,10.5,24.9,24.7,24.9c11.4,0,18-7,20.7-11
		l-8.5-5.7c-2.8,4.1-6.7,6.9-12.2,6.9c-5.6,0-9.5-2.5-12.1-7.5l33.2-13.8L548.4,84.3z M514.5,92.6c-0.3-9.6,7.4-14.5,13-14.5
		c4.3,0,8,2.2,9.2,5.3L514.5,92.6z M487.5,116.7h10.9V43.6h-10.9V116.7z M469.6,74h-0.4c-2.4-2.9-7.2-5.6-13.1-5.6
		c-12.4,0-23.8,10.9-23.8,25c0,13.9,11.4,24.8,23.8,24.8c5.9,0,10.6-2.6,13.1-5.7h0.4v3.6c0,9.5-5.1,14.6-13.3,14.6
		c-6.7,0-10.8-4.8-12.5-8.9l-9.5,4c2.7,6.6,10,14.7,22,14.7c12.8,0,23.6-7.5,23.6-25.9V69.9h-10.4V74z M457.1,108.4
		c-7.5,0-13.8-6.3-13.8-15c0-8.8,6.3-15.2,13.8-15.2c7.4,0,13.3,6.4,13.3,15.2C470.4,102.1,464.5,108.4,457.1,108.4 M599.6,43.6
		h-26.1v73.1h10.9V89h15.2c12.1,0,24-8.8,24-22.7S611.7,43.6,599.6,43.6 M599.9,78.8h-15.5V53.7h15.5c8.2,0,12.8,6.8,12.8,12.5
		C612.7,71.9,608,78.8,599.9,78.8 M667.3,68.3c-7.9,0-16.1,3.5-19.5,11.2l9.7,4c2.1-4,5.9-5.4,10-5.4c5.6,0,11.4,3.4,11.5,9.4v0.8
		c-2-1.1-6.2-2.8-11.4-2.8c-10.4,0-21.1,5.7-21.1,16.5c0,9.8,8.6,16.1,18.1,16.1c7.3,0,11.4-3.3,13.9-7.1h0.4v5.6h10.5v-28
		C689.5,75.5,679.8,68.3,667.3,68.3 M666,108.4c-3.6,0-8.6-1.8-8.6-6.2c0-5.6,6.2-7.8,11.6-7.8c4.8,0,7.1,1,10,2.4
		C678.1,103.6,672.3,108.4,666,108.4 M727.9,69.9l-12.5,31.7H715l-13-31.7h-11.8l19.5,44.3l-11.1,24.6H710l30-68.9H727.9z
		 M629.6,116.7h10.9V43.6h-10.9V116.7z"/>
	<g>
		<path class="st2" d="M123,112.4l-62.2,66.1c0,0,0,0,0,0c1.9,7.2,8.5,12.5,16.2,12.5c3.1,0,6-0.8,8.5-2.3l0.2-0.1l70.1-40.4
			L123,112.4z"/>
		<path class="st3" d="M186,101.2L186,101.2l-30.3-17.6l-34.1,30.3l34.2,34.2l30.1-17.4c5.3-2.9,8.9-8.4,8.9-14.8
			C194.7,109.6,191.2,104,186,101.2"/>
		<path class="st4" d="M60.8,53.1c-0.4,1.4-0.6,2.8-0.6,4.3v116.7c0,1.5,0.2,2.9,0.6,4.3l64.4-64.4L60.8,53.1z"/>
		<path class="st5" d="M123.5,115.8l32.2-32.2L85.7,43c-2.5-1.5-5.5-2.4-8.7-2.4c-7.8,0-14.3,5.3-16.2,12.5c0,0,0,0,0,0L123.5,115.8
			z"/>
	</g>
	<rect x="4.5" y="-1.1" class="st6" width="789.2" height="233.8"/>
	<rect x="4.5" y="-1.1" class="st6" width="789.2" height="233.8"/>
	<g>
		<path class="st1" d="M244.4,146.6c0-0.9,0.3-1.6,0.9-2.2c0.6-0.6,1.4-0.9,2.5-0.9s1.9,0.3,2.5,0.9c0.6,0.6,0.9,1.4,0.9,2.2
			c0,0.9-0.3,1.6-0.9,2.2c-0.6,0.6-1.4,0.9-2.5,0.9s-1.9-0.3-2.5-0.9C244.7,148.3,244.4,147.5,244.4,146.6z M250.9,189.7h-6.4v-37
			h6.4V189.7z"/>
		<path class="st1" d="M288.2,189.7h-6.4l-16.5-26.2v26.2h-6.4v-37h6.4l16.5,26.4v-26.4h6.4V189.7z"/>
		<path class="st1" d="M295.8,189.7v-37h10.9c3.3,0,6.2,0.7,8.7,2.2s4.5,3.5,5.9,6.2c1.4,2.7,2.1,5.7,2.1,9.2v1.9
			c0,3.5-0.7,6.6-2.1,9.2c-1.4,2.7-3.4,4.7-6,6.1c-2.6,1.4-5.5,2.2-8.9,2.2H295.8z M302.2,157.9v26.7h4.2c3.4,0,6-1.1,7.8-3.2
			c1.8-2.1,2.7-5.1,2.8-9.1v-2.1c0-4-0.9-7.1-2.6-9.2c-1.7-2.1-4.3-3.2-7.6-3.2H302.2z"/>
		<path class="st1" d="M330,146.6c0-0.9,0.3-1.6,0.9-2.2c0.6-0.6,1.4-0.9,2.5-0.9s1.9,0.3,2.5,0.9c0.6,0.6,0.9,1.4,0.9,2.2
			c0,0.9-0.3,1.6-0.9,2.2c-0.6,0.6-1.4,0.9-2.5,0.9s-1.9-0.3-2.5-0.9C330.3,148.3,330,147.5,330,146.6z M336.6,189.7h-6.4v-37h6.4
			V189.7z"/>
		<path class="st1" d="M358.1,175.5h-7.2v14.2h-6.4v-37h13c4.3,0,7.6,1,9.9,2.9c2.3,1.9,3.5,4.7,3.5,8.3c0,2.5-0.6,4.5-1.8,6.2
			s-2.9,3-5,3.9l8.3,15.4v0.3h-6.9L358.1,175.5z M350.9,170.3h6.6c2.2,0,3.9-0.5,5.1-1.6c1.2-1.1,1.8-2.6,1.8-4.5
			c0-2-0.6-3.5-1.7-4.6c-1.1-1.1-2.8-1.6-5-1.7h-6.8V170.3z"/>
		<path class="st1" d="M377.2,146.6c0-0.9,0.3-1.6,0.9-2.2c0.6-0.6,1.4-0.9,2.5-0.9s1.9,0.3,2.5,0.9c0.6,0.6,0.9,1.4,0.9,2.2
			c0,0.9-0.3,1.6-0.9,2.2c-0.6,0.6-1.4,0.9-2.5,0.9s-1.9-0.3-2.5-0.9C377.5,148.3,377.2,147.5,377.2,146.6z M383.7,189.7h-6.4v-37
			h6.4V189.7z"/>
		<path class="st1" d="M421,189.7h-6.4l-16.5-26.2v26.2h-6.4v-37h6.4l16.5,26.4v-26.4h6.4V189.7z"/>
	</g>
</g>
</svg>
